<?xml version="1.0" encoding="utf-8"?>
<!-- Generator: Adobe Illustrator 24.3.0, SVG Export Plug-In . SVG Version: 6.00 Build 0)  -->
<svg version="1.1" id="Layer_1" xmlns="http://www.w3.org/2000/svg" xmlns:xlink="http://www.w3.org/1999/xlink" x="0px" y="0px"
	 viewBox="0 0 437.3 180.9" style="enable-background:new 0 0 437.3 180.9;" xml:space="preserve">
<style type="text/css">
	.st0{fill:#006141;}
</style>
<path class="st0" d="M422.5,84v-0.5c0-0.2-0.2-0.3-0.3-0.5l-2.9,0c-0.5,0-1-0.3-1.3-0.8c-0.1-0.2-0.2-0.4-0.3-0.6
	c-0.1-0.1-0.2-0.2-0.4-0.2c-3-0.1-4.7,0.9-7.9,0.2c-0.2,0-0.6,0.1-0.8,0.2c-1,0.8-1.5-0.9-3-0.2c-0.2-0.3-0.4-0.6-0.3-1.2
	c-1.6-0.3-3.4,1.8-4.4,1.6c-1.6-0.3,1.1-1.7,2-1.9c-0.6-1.1-1.7-1.2-2.9-2.2c-0.6-0.5,1.8-0.3,2.6-0.8c0.5-0.4,0,1.5,0.6,1.9
	c0.2,0,0.6,0,0.6,0.2c1.4,0,1-1.4,2.3-1.4v0.9c1,0.2,0.8-1.4,1.7-0.8c0.5,0.3,0.7,0.9,1,1.4c0.1,0.3,0.4,0.4,0.7,0.2
	c1-0.6,2.1-1,2.5-2c1.1-0.2,1.1,0.4,1.8,0.5c0.1,0,0.2,0,0.3-0.1c1.5-0.7,2.8-2.8,0.6-3.5h-0.5c-2,0.5-5.6,1.3-8.4,0.7
	c-0.6,0.3-1.7,1.3-2.3,0.7c-0.2,0-0.4,0-0.6,0c-1.5-0.6-2,0.7-3.2,0.2h-0.3c-0.8,0.6-2.5-0.5-3.5,0.2c-2.1-0.5-3.7,0.3-5.1-0.4
	c-0.2-0.1-0.3-0.5,0-0.6c0.7-0.4,1.3-0.8,2.4-0.9c0.2,0,0.5-0.1,0.7-0.1c2.1-0.6,4.6,0.3,5.8-1c0.3,0.7,1.8,0.4,2.9,0.5
	c0-0.2,0.3-0.8,0.3-1c-0.5,0.1-1.1,0.3-1.5,0.3c-0.2,0-0.3-0.1-0.4-0.2c-0.1-0.2-0.2-0.4-0.3-0.4h-0.3c-1.1,0.2-2,0.9-2.8,1.3
	c0-0.3-0.5-0.5-0.9-0.5c-0.2,0-0.3-0.1-0.3-0.3c-0.7-1.5-0.6-2.6-0.2-3.7c-2,0-4.9-0.3-6.7,0.6c-0.1,0-0.1,0.2,0.1,0.2
	c2.2-0.4,6.2,0.5,3.7,1.8H393c-0.9,0.8-1.6-0.8-2.6-0.6c-0.8,0.1-0.9,1.3-1.7,1.6c-0.6,1.6-2.9,0.5-2-0.7c0-0.3,0-0.5,0-0.8
	c0-0.4,0.2-0.7,0.6-0.8c0.6-0.1,1.1-0.3,1.1-0.8c-0.1-0.5-1.6,0-1.4-0.7c0.1-2,0.3-2.5,2.3-3.3c0.2-0.1,0.1-0.3-0.1-0.3
	c-1.3,0-3.1,1.2-4-0.2c-0.4,0.3-0.1,1-0.9,1c-0.4,0-1.1-0.4-1.2,0c-0.1,0.9-1.3,0.3-1.2-0.1c-0.3-1.2,1.7-0.5,1.7-1.4
	c-1.8,0.4-1.9-0.6-2.9-1c-0.8,0.7-1.9,0.7-3.2,0.2c-0.5,0.1,0,1.1-0.6,1.2c-0.9,0.1-0.8-0.7-1.4-0.9l-0.2,0.1
	c-0.1-0.2-0.2-0.7-0.2-0.9c1.6,0.2,2.5-0.8,2.1-3.3c-1.5-0.5-3.1-0.8-4.2-1.2c-0.3-0.1-0.6-0.4-0.7-0.7c-0.2-0.6-0.4-1.2-0.7-1.7
	c-0.2-0.3-0.1-0.8,0.2-1c1.7-1.4,4.9,0.3,7.4-0.4c-1-0.6,0.6-1.7-0.9-2c0.7-0.7,1.4-0.5,1.4-0.5c-0.7-2.4-4.2-2.1-5.8-3.1
	c0.5-1.7,3.2,0,4.4-0.9c0.2-0.1,0.3-0.4,0.2-0.7c-0.2-0.6-0.5-1-0.5-1.3c-0.1-0.3,0.3-0.6,0.6-0.4c0.2,0.1,0.7,0.1,0.7,0.4
	c0,0.6,0.9,1.1,1.4,1.7c0.1,0.1,0.4,0,0.3-0.2c-0.4-1.2-1.1-2.7-0.4-3.8c0.4-0.6-0.7-1.9-1.4-2.8c-0.2-0.2-0.1-0.6,0.2-0.6
	c0.4,0,0.9,0,0.9,0c0.9-3.4-0.6-6-3.3-6.8c-5-1.5-14.7-2.9-21.2-3.4c-2.9,1.1-6.7-1.6-9.3,0.6c-0.5,0-0.2-0.9-0.8-0.8
	c-1.7,0.8-3.8,1.1-5.4-0.8c-0.1-0.2-0.3-0.3-0.6-0.3c-0.8,0-1.4,0.3-2,0.5c-0.2,0-0.2,0.3,0,0.4c2.2,1,5.8,3,7.7,1.5
	c0,0,1.6,0.9,2.4,1.4c0.6-0.1,1,0,1.4,0.1c0.2,0.1,0.4,0.3,0.3,0.5c-0.1,1.5-2.2,1-4,1c-0.9-0.2-2.3,0.2-2.8-0.4
	c-0.4,0-0.8,0-1.3-0.1c-1-0.2-2.7,0.2-3.3-0.4c-5.3-0.5-9.5-0.6-14-1.3c-1.4-0.2-7.5-0.1-8.8-0.7c-0.2,0-0.6-0.1-0.8-0.1
	c-2.2,0.6-7.7-0.4-11.4-0.2c-0.3,0-0.5,0.3-0.4,0.5c0.1,0.5,0.7,1,0.9,1.2c0,0,0,0.1-0.1,0.1c-5.3,0.1-11.4,0.4-16.2-1.1
	c-0.3-0.3-1.8,0.9-2.4,0.4c-0.8-0.7-2.5-0.8-2.5-0.8c-1.7,1.5-9.1-1-13.2-0.9c-0.7,0-1.1-0.2-1.3-0.2c-0.2,0.9-0.7,1.3-2,1
	c-1-0.9-2.3-1.5-3.4-0.9c-0.4,0.7-1.6-0.1-1.8-0.5c-1.5-0.3-2.7-1.3-3.7-0.1l-0.3,0c-4.6-2-11.8-0.9-15.4-0.8l-0.3,0
	c-1.2-0.2-1.9,0-2.7,0.3c-0.3,0.2-0.7,0.3-1.3,0.2c-0.8-0.9-2.4-1.6-3.2-0.5c-1-0.1-2.7,1.3-2.9-0.4c-6.5-2.2-11.3,1.2-17-0.5
	c-4.1,0.6-7.9-0.2-12.2,0h-0.3c-4.1,1.1-9.3,1-13.3,1.6c-0.6-0.1-1.9,0.4-2.1-0.2c-1.5-0.1-2.1-0.1-3.5,0.3c-2,0.3-4.8,0.2-6.1-0.4
	c-0.7-0.1-1.4-0.1-2.1-0.1c0.2-0.5,0.7-1,1.2-1.1c1.4,1.8,5.6-0.8,7.5,0.1c0.2,0.1,0.3,0,0.5-0.1c1-1.1,3.2-1.4,4.4-0.7
	c1,0.6,0.6-2.1,2.3-2.3c0.5,0,0.8,0.5,1,0.9c0.2,0.2,0.5,0.2,0.6,0.1c0.3-0.3,0.7-0.4,0.7-0.9c0-0.5-0.3-0.6-0.5-0.8
	c-0.1-0.1-0.2-0.2-0.4-0.2c-3,0.4-6-0.4-8.4,0.7c-0.4,0.9,1.4,0.6,0.6,1.1c-0.7,0.1-0.7-0.6-1.1-0.8c-2,0.8-4.7-0.3-6.1,1.1
	c-1-1.4-3.5,0-4.6,0l-0.3,0c-0.3,0-0.4-0.2-0.8-0.1c0,0.3,0.2,0.8-0.2,0.9c-0.5,0-0.6-0.3-0.6-0.8c-2.1,0.2-2.8,0.5-4.6,0.5
	c-0.5,0.2-1,0.6-1.8,0.6c-1,0.1-3.2,0.6-4.1,0.7c-0.7,0.1-1.6,0.5-2.4,0.5c-0.6,0-1-0.6-0.6-1.1c0.4-0.5,1.1-1,1.8-1.4
	c0.1-0.1,0.1-0.3-0.1-0.3c-0.4,0-0.8,0.1-0.7-0.4c0-1.1,1.3-1.3,2.7-1.4c0.1,0,0.1-0.2,0-0.2c-2.1-0.4-4.8,0.7-7.4,0.5l-0.3,0
	c-0.9,0.3-2.5,0.4-3.8,0.9c-1.1-0.7-0.8-3.1,1.3-2.8c0-0.4,0.3-0.9,0.6-1.1c0,0-0.1-0.1-0.1-0.2c-0.2-0.3-0.5-0.5-0.8-0.4
	c-0.4,0.1-0.8,0.3-1,0.6c0,0.8-0.3,1.4-1.3,1.5c-0.4,0-0.8-0.2-0.9-0.5c-0.2-0.4-0.3-0.9-0.4-1.4c-1.3,0-2.7,0.5-3.8,0.4
	c-0.5,1.5,1.6,0.3,1.4,1.4c-0.2,0.5-1.1-0.1-1.5,0.5c-0.5,0.8-1.8,0.3-3.1,0.6c-1,0.4-1-2-0.4-1.5c0.5,0.4,1.5,0,2.3,0
	c0-0.3-0.2-0.7,0.2-0.8c0.4-0.1,0.3-0.5,0.3-0.5c-5.1,0.1-8.7,1.6-8.7,1.6c-1.2-1-2-1.4-3.5-1.4c-0.2,0-0.4,0.2-0.4,0.4
	c-0.1,0.7-0.7,0.8-1.1,1.4l0.1,0.3c0.1,0.5-0.5,0.6-1.1,0.7c-0.4,0.1-0.8-0.2-0.9-0.7c-0.1-0.4-0.2-0.8-0.6-0.5
	c-0.5,0.3,0.3,1.2-0.1,2c0.4,0,0.9-0.1,0.8,0.4c-0.1,0.3-0.3,0.5-0.7,0.5c-0.2,0-0.3,0-0.5,0.1c0,0.2-0.4,0.2-0.7,0.1
	c-0.6-0.3,0-0.9,0-1.4c-1,0-1.1-0.9-1.7-1.4c-0.2-0.1-0.4-0.2-0.6-0.2c-0.5,0.1-0.7,0.5-1.4,0.4c-0.4-0.3-0.5-0.8-0.9-1.1
	c-0.2-0.1-0.4-0.2-0.6-0.1c-0.5,0.1-1.6,0.3-1.4,0.8c0.2,0.5,1.5,0,1.8,0.5c0.4,0.4,0.5,0.8,0.4,1.5c0,0,2.1-0.1,1.9,0.9
	c-0.1,0.4-0.4,0.8-1.2,0.8c-0.4-0.1-0.2-0.8-0.4-1.1c0-0.1-0.2-0.1-0.2,0c-0.9,0.7-2.3,0.1-2.1-1c0.1-0.4,0.2-0.6,0.3-0.9
	c-0.8,0.3-1.3,1.2-2.1,0.6c-0.1,0-0.1,0-0.2,0.1c-0.1,0.5-0.7,1-1,0.6c-0.4,0-1-0.3-1.4-0.2c-0.1,0.1-0.1,0.1-0.2,0.2
	c-1,0.8-2,0.2-2.1-1l0-0.3c-0.3,0.1-0.5,0.1-0.7,0c-0.5-0.2-1,0.3-0.9,0.8c0.2,0.6,0.3,1.1-0.4,0.8c-2.1-0.9-3.6,0.3-4.5-1
	c-2.2,0.8-3.5,1.1-5,2.1c-1-0.7-1.8-0.2-2.9-0.8c-0.3,0.3-0.2,0.5,0.1,0.6c0.4,0.3,0.3,0.9-0.2,1c0,0-0.1,0-0.1,0
	c-0.1,0-0.2,0-0.3-0.1c-0.3-0.2-0.4-0.7-0.7-1c-0.7,0.1-1.5,0.2-1.8,0c-0.5-0.1-0.6-0.5-1.1-0.6c-0.4-0.1-0.8,0.1-1,0.4
	c-0.5,0.6-1,1.1-1.9,1.5c-0.1-0.4-0.6-0.5-0.8-0.8l-0.3,0.2c-1.4,0.5-0.7-0.9-2.1-0.8c0,0,0,0.8-0.7,0.8c-0.4,0-0.5-0.3-0.8-0.4
	c-1.8-0.2-4.5,0.6-5.8,1.5c0.7,0.5,1.3,1.6,0.1,1.6c-0.7,0-0.8-0.6-0.9-1.2c-1.4,0-3,1-3,1c-2.9,1.6-3.9,4.5-5.1,7.3
	c-0.1,0.3,0.2,0.7,0.5,0.6c0.4-0.1,0.8-0.2,1.1-0.3c0,0.5-0.1,1.1-0.2,1.7c-0.2,0.8-0.9,1.2-1.7,0.9c-0.1,0-0.1,0-0.2-0.1
	c-0.1,0-0.3,0.1-0.3,0.2c0.2,1.1,0.9,2.4,1.3,3.1c0.2,0.3,0,0.7-0.3,0.8c-4.1,1.8-12.1,0.4-13.5,3.3c-0.3,0.7-1.3,2.4-3,2
	c-1-0.3-0.8-1.5-1.8-1.4c0,0-0.8,1.4-2.6,2c-0.1,0-0.2,0.1-0.2,0.1c-1.3,0.3-2.8,0.9-3.6,0.5c-0.5-0.2-0.6-1-0.2-1.4
	c0.3-0.3,1-0.5,1.7-0.6c0.7-0.7,1-1.3,1.8-1.9c2.1,1,6.1-1.5,8.2-2.9c0.1-0.1,0.1-0.2-0.1-0.2c-0.8,0-1.5-0.2-2.4-0.1
	c-0.3,0-0.5,0.2-0.7,0.4c-1.4,2.1-3.4,2.1-5.3,1.7c-0.6,0.1-0.9,1.1-0.9,1.1c-3.2-1.6-8.1,2.4-10.6,1.6c-0.8-0.3-13.7,4.6-19.7,7.3
	c-0.7,0.3-1.6,1-2.1,1.5c-1.7,1.8-2.4,4-1.1,6.6c0,0,1.6-0.9,1.6,0.2c0,0.9-1,2.3-1.3,3.3c-0.1,0.2-0.1,0.5-0.1,0.8
	c0.1,0.9,0.2,1.7,0.2,2.5c0,0.2,0.3,0.3,0.4,0.1c0.2-0.4,0.3-0.9,0.5-1.4c0.1-0.4,0.5-0.8,0.9-0.9h0c0.4-0.1,0.9,0.2,0.9,0.6
	c0,0.2,0,0.4,0,0.6c0,0.5,0.3,0.9,0.8,0.9c1,0,2.3-0.7,3.3-0.8c0.6,0,0.8,0.7,0.3,1c-1.6,1-4.2,1.7-4.8,3.8c0.3,0,0.5-0.1,0.6,0
	c0.4,0,0.5,0.4,0.3,0.7c-0.4,0.5,1.1,0.9,0.3,1.6c2.9,0.1,6.1-2.7,8-0.8c-0.5,0.8-0.8,1.9-1,2.9c-1.2,0.6-2.6,1.4-4.3,2.3
	c0,2.5,0.8,3.5,2.4,3c0.2,1.2-1,1.7-0.7,2.4c-0.2,0-0.5-0.1-0.7-0.1c-0.5-0.2-1.1,0.2-1.1,0.8c-0.1,1.7,0.3,3.5-0.8,3.8
	c-3.3,0.9-3.3,6.6-3.3,6.6c0.4,0,1.5-0.6,1.5,0c0,1.4-1,2.2-2.2,2.9c0.2,1.6,1,1.4,0,2.6c0,0.7,1-0.1,0.9,0.8
	c-0.2,0.2-0.3,0.4-0.4,0.6c-0.1,0.3-0.5,0.2-0.6-0.1l0-0.2c0-0.4-0.5-0.7-0.8-0.5c-0.3,0.1-0.6,0.3-0.8,0.5c0,1.1,1.2,0.4,1.4,1.1
	c-0.8-0.3-0.1,0.4-0.3,1.1c-0.1,0.3,0.1,0.6,0.3,0.7c0.6,0.2,1.5-0.3,2.2-0.5c0.5-0.2,0.9,0.3,0.6,0.6c-0.1,0.1-0.3,0.2-0.4,0.4
	c-0.2,0.3-0.1,0.8,0.2,1c0.4,0.3,1,0.5,1.5,0.6c0.3,0.1,0.7,0,1-0.3c1.5-1.5,5.1-4.3,6.1-2.9c0.6,0.8,1.8,0.5,2.8,0.6
	c0.4,0,0.8-0.3,0.8-0.7c0.1-0.5,0.4-0.8,0.8-0.8c0.4,0,0.6-0.3,0.6-0.6c-0.1-0.8-0.1-1.7-0.5-1.8c-0.8-0.2,0.2-1.1,0-1.6
	c0.6-0.1,1-0.3,1-0.8c-0.7-0.1-0.5-1-0.6-1.6c-0.1-0.6-0.9-0.8-1.2-0.3c-0.2,0.2-0.3,0.5-0.7,0.5c0,0.7,1.3,0.5,0.8,1.7
	c-0.2,0.4-0.6-1.1-1.5-0.7c-0.5,0.2-0.3,0.8-1,0.8c-0.2,0-0.3,0.1-0.5,0.2c-0.3,0.1-0.6,0-0.8-0.3c-0.2-0.3-0.4-0.6-0.7-0.8
	c-1,0-0.7,0.8-1.5,1c-0.2-0.3-0.3-0.5-0.6-0.6c-1,0.9-1.4,0.8-2.1,1.2c-0.3,0.2-0.7,0-0.9-0.3c-0.3-0.5-0.7-0.9-0.9-1.5
	c-0.1-0.3,0-0.6,0.2-0.9c0.7-0.7,1.2-0.7,1.6-1.8c0.9,0.2,1.4-0.2,2-0.1c0.3,0.1,0.5,0.4,0.4,0.7c-0.1,0.2-0.3,0.4-0.5,0.6
	c-0.1,0.2-0.1,0.4,0.1,0.6c0.3,0.2,0.7,0.5,1,0.5c0.2,0,0.2-0.2,0.1-0.4c-0.1-0.1-0.1-0.3,0.2-0.5c0.5-0.1,0.2,0.8,0.6,0.9l0.3-0.1
	c0.5-0.2,1-0.3,1.5-0.5c0-0.4,0.4-0.6,0.4-0.9c-0.2-0.3-1.4,0.3-1.2-0.6c0.2-0.8,1.1-0.1,2-0.7c0.7-0.7,0.1-1.2,0.5-1.7
	c0.3,1.3,1.8,0.9,2.9,0c0.5,0.3-0.1,0.5,0.1,1.3c0.8,0,0.6-0.5,1.3-0.6c2-0.5,2-2.7,0.8-3.4c-0.9-0.6-1.8-1.1-2.3-2.2
	c0.4-0.2,0.7-0.4,1-0.6c0.4-0.3,1-0.1,1.1,0.3c0.2,0.6-0.4,1.8,0.4,2.2c0.5,0.2,1.1-0.7,1.6,0.1c0.2,0.9-0.3,1.4-0.3,1.8
	c0,0.3,0.3,0.5,0.6,0.3c0.7-0.3,1.3-0.5,1.7,0.1c0.1,0.3-0.1,0.6-0.2,0.8c-0.2,0.4,0.2,0.7,0.6,0.5c0.2-0.1,0.5-0.3,0.7-0.4
	c0.2-0.2,0.3-0.5,0.2-0.7c-0.2-0.4-0.5-0.6-0.7-0.8c-0.2-0.2-0.2-0.4-0.1-0.6c0-0.1,0.1-0.2,0.1-0.2c0.1-0.3,0.5-0.4,0.7-0.2
	c0.8,0.9,1.7,1.7,3,1.9c0.2-1.2-1.5-0.6-0.7-1.9c-0.1,0-0.1,0-0.2,0.1c-0.5,0.1-0.8-0.3-0.7-0.8c0.2-0.6,0.3-1.2,0.7-1.6
	c0.1,1.5,1-1.2,1.6-0.2c-1.6,2.3,0.4,3.2,1.3,4.6c0.1,0.2,0.1,0.4-0.1,0.5c-1.3,1.1-3.7,3.6-4.6,1.4c0.3-0.1,0.6,0,0.8,0
	c-0.2-0.5-0.5-0.8-1.1-0.8c-0.4,0.8-0.9,0.6-1.5,0.8c-0.3,0.1-0.5,0.4-0.5,0.7c0,0.7,0,1.4-1.1,1.4c0.1,1.9,2.1,1.7,3.5,0.9
	c0.4,0.6,0.2,1.2,0.2,1.8c-1,0.1-1.4,0.7-1.7,1.3c-0.6-0.2-1.1-0.4-1.6-0.6c-0.1,0.4-0.3,0.9-0.3,1.3c0,0.4,0.3,0.8,0.8,0.7
	c1.6-0.2,2.7-1.2,4-2.2c0.5,0.9-0.7,0.7-0.4,1.4c1.1-0.6,1.1-0.4,2.1-0.3c0.3-1-0.9,0.1-0.8-0.6c1.8-1-1.3-2.9,1.3-3.8
	c0,0.5,0,0.9,0.2,1.1c0.3,0.5,1,0.5,1.3,0c0.2-0.2,0.4-0.5,0.9-0.5c0-0.2,0-0.3-0.1-0.4c-0.2-0.3-0.1-0.8,0.2-1
	c0.8-0.8,1.9-0.8,2.6-1.6c-1.4,0-1.7-0.6-1.6-2.1c0-0.3-0.3-0.6-0.6-0.5c-0.2,0.1-0.4,0.2-0.5,0.3c-0.3,0.2-0.5-0.2-0.4-0.4
	c0.2-0.3,0.3-0.6,0.5-0.8c0.1-0.2,0.3-0.3,0.5-0.4c1-0.3,1.6-0.2,2.1,0.3c0-0.4,0-0.8,0.1-1.2c0.1-0.3,0.3-0.5,0.6-0.5
	c0.7-0.1,1.5-0.3,1.8,0.3c-0.1,0.2-0.2,0.5-0.2,0.9c0,0.3-0.1,0.6-0.4,0.8c-0.4,0.3-0.9,0.6-1.3,0.9c0,1.7,0.6,2.6,0.7,4.1
	c0,0.5-0.3,0.9-0.8,1c-1.3,0.4-1.8-0.1-3.1,1c0.4,0.9-0.6,0.9-0.4,1.7c0.4-0.1,0.7,0,0.8,0.3c-1.2,0.6-0.3,2.1-0.3,2.7
	c0.9-0.9,0.6-2.4,2.3-3.2c0.4-0.2,0.5-0.7,0.3-1.1c-0.1-0.2-0.3-0.4-0.4-0.8c0.9,0.5,2.1-1.2,2.6-0.1c-0.1,0.7-0.5,1.7-0.3,2.5
	c0.1,0.5,0.8,0.7,1.1,0.3c0.7-0.7,1.4-1.3,2-2c0.3-0.3,0.7-0.3,0.9,0c0.2,0.2,0.3,0.3,0.7,0.1c-0.1-0.9-0.1-1.7,0.9-1.8
	c0.1,1.1,0.1,1.6-0.1,2.5c-0.1,0.5-0.7,0.8-1.2,0.8c-0.1,0-0.3,0-0.5,0c-0.2,0-0.3,0.2-0.4,0.3c-0.6,0.8-1,1.4-2.5,1.5
	c-1.4,0.1-1.5,4.7-2.5,7.6c-0.2,0.6-0.8,1-1.4,1.1c-0.2,0-0.5,0-0.7,0c-0.3-0.1-0.7,0.2-0.6,0.6c0.1,0.5,0.1,1-0.6,1.3
	c-0.1-0.8,0.5-1.6,0.2-2.5c0.4-0.5,1.6-0.3,1.5-1.2c-0.6,0.3-0.9,0.2-1.3,0.2c-0.2,0-0.5,0.2-0.5,0.4c0,0.4-0.2,0.7-0.5,0.9
	c-0.4,0.3-1-0.1-0.9-0.6c0.1-0.4,0.2-0.8-0.2-1c-0.3,1.3-0.8,1.3-2.3,1.5c-0.3,1.2,1.5-0.2,1.6,0.6c-0.2,1.4-1.9,1.4-3.1,1.3
	c-0.6,2.8-4,2.8-5.8,2.1c-0.2,0.1-0.7,0-1,0c-0.2,0-0.4,0.2-0.5,0.4c-2,3.9-7.1,3.5-9.6,7.1c-0.3-0.4,0.6-1.6-0.9-1.3
	c0.1,0.5,0.1,1,0,1.4c-0.1,0.4-0.7,0.6-1,0.2c-0.2-0.2-0.3-0.5-0.5-0.7c-1.8,0.5-3,0.7-4.1,0.8c-0.3,0-0.3,0.4-0.1,0.5
	c0.6,0.3,1.1,0.6,1.1,1.7c0,0.2-0.1,0.5-0.3,0.6c-0.6,0.4-1.5,0.6-2.2,0.7c-0.3,0-0.5-0.1-0.7-0.3c0-0.1-0.1-0.1-0.2-0.1
	c0.4,1.5,2.8,0.3,3.5,1.4c0.7-0.4,0.7-1.5,1.2-2c0.1-0.1,0.2-0.2,0.3-0.2c1.4-0.6,2-0.1,3.3-0.5c0.1,0,0.2-0.1,0.3-0.2
	c0.5-0.5,0.4-1.5,0.8-2c0.2,0.2,0.4,0.3,0.5,0.6c0.2,0.4,0.5,0.5,0.9,0.4c1-0.5,1.8,0.2,3.2-0.8l0.2-0.1c0.5-0.2,0.4,0.8,1.1,0.4
	c0.2-0.2,0.1-0.7,0.2-1c0.1-0.4,0.6-0.5,0.8-0.1c0.4,1,0.3,2.7,1,3.3c-0.5,0.4-0.3,1.2-1.2,1.4c-0.9,0.2-1.2-1-1.8,0.3
	c0.8-0.3,0.3,0,0.3,0.5c0,0.2-0.2,0.4-0.4,0.5c-0.5,0.2-0.8-0.1-1.4,0.5c-0.2,1,1,0.1,0.9,1.1c-0.2,1.2-1.5,1.6-2.2,2
	c0.3-0.5-0.3-1.3-0.9-1.3c0,0-0.2,1.5-0.6,2c-0.4-1.5-1.8,1.1-2.6-0.3c-0.3-1-0.1-1.1,0-1.8c0-0.3-0.2-0.6-0.5-0.5
	c-2.6,0.3-5.2,2.1-6.7,2.5c-0.2,0.7,0.5,0.5,0.9,0.5c0.2,0,0.2,0.4,0,0.4c-0.5,0-0.2,1.2-1.3,1.5c-0.2,0-0.2,0.3,0,0.3
	c0.3,0,0.8,0,0.9,0.2c0,0.3,0.1,0.6,0.1,0.9c0,0.2-0.1,0.4-0.3,0.4c-0.3,0.1-0.5,0.2-0.6,0.3c-0.2,0.1-0.2,0.3-0.2,0.5l0,0.3
	c1.1-0.7-0.3,1.2,0.6,1.1c0.9-0.5-0.2-1.2,0.4-1.7c0.6-0.4,1.8-0.4,2.8-0.3c0.3,0,0.6,0.4,0.4,0.7c-0.3,0.8-1.1,1.2-1.8,1.7
	c-0.2,0.1-0.4,0.4-0.4,0.6c-0.1,0.6-0.3,0.8-0.1,1.2c-0.3,0.1-0.8,0-1.2,0.2c0.1,0.7-0.1,1.4-0.4,1.9c-0.1,0.2-0.2,0.5,0,0.8
	c0.1,0.2,0.2,0.5,0.4,0.5c1.2,0,1.5,1.2,1.1,2.8c0.2-0.1,0.6-0.5,0.8-0.6c0.2,0.2,0,0.6,0,0.8c0,0.4,0.4,0.7,0.9,0.6
	c1-0.2,1.1-0.5,2.3-1.2c0.6,0.8,3.7,0.9,3.5-1.2c-1,0-1.6-0.6-1.9-1.6c-0.1-0.3,0-0.6,0.3-0.7c0.8-0.4,1.8-0.4,2.5-0.2
	c0.3,0.1,0.7-0.2,0.7-0.5c0-0.6,0.3-0.8,0.9-1c-0.1,1.1-0.5,2-1,2.9c-0.3,0.5,0.1,1.1,0.7,1.1c1.7-0.1,3.2-0.3,4.7-0.1
	c2.1-2.7,5.8-0.7,8-3.1c1.6,0.1,1.6,2.2,1.1,3.5c-0.1,0.3-0.5,0.4-0.8,0.3c-0.1,0-0.2-0.1-0.3-0.1c0.2,0.9-0.2,2.3-1,2.6
	c0-0.7,0.2-1.6,0.3-2.4c0-0.4-0.5-0.6-0.8-0.3c-0.4,0.5-0.4,1.2-0.7,1.7c1.2,0-0.3,1.8,0.4,3.1c-0.3,0.2-0.5,0.3-0.6,0.3
	c-0.4,0-0.6,0.4-0.7,0.7c0,0.5-0.6,0.5-1.1,1.2c0.2,0,0.7,0.2,0.7,0.4c-1,1.2-2.6,0.5-3.9,0.4c-0.3,0-0.6,0.2-0.7,0.5
	c0,0.1-0.1,0.2-0.2,0.3c-0.2,0.6-1.9,0.5-2,0.1c0,0-10.8,2.8-9.4,3.7c0.8,0.5,2.4-0.9,3.2-0.5l0.2-0.1c1.7-0.6,2.8-0.9,3.5-0.5
	c7.4-1.2,12.3-4.6,18.5-4.3c2.8-1,5.5-3.9,8-3.6c1,0.4,2.2,0.5,2.8-0.7c0-0.2,0.2-0.6,0.2-0.9c0.2,0.1,0.4,0.5,0.5,0.7
	c0.5,1,1.2-0.8,1.2-0.8c2.8,0,6.9-0.1,8.3-3l0,0.7c0.6-0.1,1,0.3,1,0.3c0.4-0.1,1.5-3.1,2.6-2.7c0.8,0.3,0.1,1.8,0.1,1.8
	c0.6,0.3,1.2,0,2-0.2c0.3-0.1,0.5-0.2,0.7-0.3c0.9-0.9,1.5-3.1,2.2-3.1c1.2,0,2,0.5,2.4,1.6l0,0.3c-0.6,0.1-1.2,0.5-1.4,0.9
	c0.6,0,1.7,0.2,2.2-0.4c0.4-0.7,1.5-1.1,2.3-0.9c-0.6-1.1-0.1-1.7,0.4-2.5c0.1-0.2,0.3-0.3,0.5-0.3c0.4,0,0.6,0.3,1,0.3
	c0.3-0.2,0.4-0.6,0.5-1c0.1-0.3,0.3-0.5,0.6-0.5c0.8,0,1.6,0.2,2.6-0.1c0,1-0.5,1.6-1.4,1.8c-0.4-0.1-0.1-1-0.6-0.9
	c-0.7,0-1.2,2.7-0.1,2.4c2.3-0.5,4.3-1.2,6-2.7c0.2,0.5,0.5,0.9,1.3,0.5c0.4,0.3,1,0.2,1.3-0.2c0.9-0.9,1.9-0.8,2.6-0.2
	c0.2,0.2,0.6,0.2,0.8-0.1c0.4-0.5,0.5-1.5,1.3-1.4c0,0.2,0.3,0.2,0.5,0.2c0.4,0.1,0.4,0.5,0.7,0.9c0.3,0.5,1,0.5,1.3,0
	c0.5-0.8,1.3-2.4,1-2.9c-0.6-0.9,0.8-2.4,1.2-2.8c0.3-0.3,0.8-0.1,0.9,0.3c0,0.2,0,0.5-0.1,0.6c-0.1,0.1,0,0.2,0.1,0.2
	c0.9-0.1,1,0.8,1.3,1.4c-0.2,0-0.3,0.1-0.2,0.3c0,0.4-0.8,0.4-0.5,0.9c0.3,0.5,1.7-0.6,2.6,0.1c0.5-0.6,3,0.4,3.9,0.2
	c0.1,0,0.2-0.1,0.3-0.2c0.8-0.7,1.7-1.8,3.4-1.8c0.3,0,0.5-0.1,0.7-0.3c0.7-0.7,2.2-2,3.3-2c0.7,0,0.4-0.9,1.1-0.8
	c0.3-0.7,1.6-0.6,1.6,0.2c0,0.9-1,0.6-1.6,1.2c-0.6,0.6-1.2,2.5,0.3,0.9c0.4-0.5,1.1-0.6,1.7-0.5c0.2,0,0.3-0.2,0.4-0.4
	c0.5-1,1-1.9,2-2.5c0.2-0.1,0.4-0.1,0.6,0c0.2,0.1,0.4,0.2,0.5,0.4c0.3,0.3,0.2,0.8-0.2,0.9c-0.3,0.1-0.7,0.2-1,0.5
	c-0.2,0.2,0,0.4,0.2,0.4h2.3c0.3,0,0.6-0.2,0.7-0.5c0.1-0.1,0.2-0.2,0.6-0.2c0.4,0,0.8,0.2,1.1,0.3c0.3-0.2,0.3-0.3,0.6-0.5
	c-0.1-0.4-0.2-0.7-0.4-0.9c-0.4-0.6,0-1.4,0.7-1.5c0.3,0,0.6-0.1,0.8-0.1c0.2,0,0.3-0.1,0.5-0.1c1.2-0.6-0.1,1.2,0.2,2.2
	c1.1-0.3,1.5,1.4,1.5,0.6c0-1,1-0.6,1-0.9c-0.2-1.4,2.2-2,2.7-3.2c0.4-1,2.5,0.2,3.4,1.1c0.2,0.2,0.6,0.2,0.9,0
	c0.4-0.3,0.7-0.8,1.3-0.7c-0.3,0.8,0.4,1.2,0.4,1.2c2.7,0.7,1.9-1.5,4-1.1l0-1.4c1.4,0.1,3-0.5,4.5-0.9c0.3-0.1,0.6,0,0.8,0.2
	c0,0,0.1,0.1,0.1,0.1c-0.5,1-0.8,1.8-2,1.9c-0.2,0-0.5,0.2-0.5,0.4c-0.1,0.2-0.1,0.7-0.1,0.7c1.3-0.7,2.4-0.4,2.6,0.6
	c0,0.1,0.2,0.2,0.3,0.1c0.5-0.4,1.7-0.4,1.7-1c0-1.7,3-0.5,5.2-0.9c0.5-0.1,0.7-0.8,0.3-1.1c-0.2-0.2-0.3-0.3,0-0.5
	c0.3-0.1,0.7-0.1,1-0.2s0.6,0.2,0.5,0.5c-0.1,0.5-0.2,1,0,0.8c0.5-0.3,0.8,0.8,0.8,0.5c0.3-1.5,2.1,1.4,2.8-1
	c-1.2,0.6-1.7-0.7-1.2-1.3c0.7-0.1,2.4-0.6,2.3,0c-0.2,1-0.2,1.7,0.7,2.2c1.1,0.5,1.6-0.5,2.6-0.3c0.5-1,2.2-0.8,3.3-1.2l-0.2-1
	c1.5-0.3,3.8,0,4.5,1.1c0.2,0.2,0.4,0.2,0.6,0.1c0.7-0.6,1.4-1.1,2.1-1.4c0,0.3-0.4,1-0.4,1c1,0.5,2.2,0,2.2-0.7
	c0-0.2-0.1-0.7-0.1-0.7c0.8-0.2,1.5-0.3,2.3-0.7c1.6,1.9,4.4,0.5,6.7,1.5c-0.1-1.6,2.5,0,2.7-1.7c1.1,1.3,2.9-1.3,3.6,0.3
	c0.6-0.2,0.9,0.2,1.3,0.1c1.6-0.7,2.6,1.4,2.6,1.4c-0.8-0.3-1.9-0.2-2.6,0.1c-0.3,0.1-0.5,0.4-0.6,0.7c-0.2,0.8,0.3,1.6,0.7,2
	c-1.2,1.5-1.9,2.4-1.1,4.3c0.2,0,0.7,0,1.1,0.1c0.3,0,0.4,0.3,0.2,0.5c-0.3,0.2-0.7,0.4-0.7,0.6c0.5,1.5,1.6,2.5,3.5,2.8
	c0.6-0.1,0.2-1.3,1-1.2c1,0,1.5,1,1.7,1.7c3,0,9.4,3.5,11-0.5c1.1-2.7,4,2.2,6.5,2c0.5-1.3,3.7-1.2,4.4-2.1c0.4-0.6,0.6,1.2,1.2,1.2
	c0.6,0,0.5-2.6,2.5-1.4l0.2-0.9c0.8-0.2,0.6,1.3,0.5,1.9c1.1,0.2,1.2-0.5,2.2-0.5c0.1,0.1,0.1,0.1,0.2,0.2c-0.2,0.8,0.3,1.5,1.1,1.7
	c1.6,0.4,2.8-0.5,3.4-1.7c-0.2-1.3,0.1-2.8,1.3-2.3c1.2,0.5,0.3,2.2,0.9,2.8c0.2,0.2,0.3,0.2,0.3,0.5h1.2c0.4-0.5,0.8-1,1.5-1.3
	c0.2,0.1,0.4,0.1,0.6,0.2c0.2,0.8,2.3,0.2,3.3,0.9c2.1-1.1,3.7-1.7,7.1-2.1h0.3c1.6-0.2,1.1,2.1,2.6,1.8c1.7-0.3,1.8-1.8,4-1.7
	c0,0.4,0.2,1,0.6,1.1c0.4-0.4,0.3-1.4,1.4-1.5l0-1.1c0.5,0.3,1.3,0.8,1.7,1.2c0.3,0.3,0.3,0.8-0.1,1c-0.3,0.2-0.7,0.5-0.8,0.8
	c0.3,0.1,0.7,0.1,0.8,0.3c0.1,0.2,0.3,0.3,0.5,0.2c1.9-0.2,2.3-1.8,2.8-2.5c0.3-0.5,0.9,0.2,0.9,0.2s0.6-0.2,0.9,0
	c1.9,1.5,5.4-0.2,5.5,0.2c0.4,1.5,3.2,2.4,6,1.3c0,0-0.8-0.2-1.1-0.4c-0.4-0.2-0.4-0.8,0-1c1.4-0.7,4.2-0.1,5.3,0.4
	c2.3-0.6,10.7,0.2,13-1.4c0.3-0.2,0.8,0.2,0.8,0.6c0.1,0.4,0.1,0.8,0.1,1.1c1.7-0.5,3.4-0.5,4.4-2.2c0.7-1.2,2.7-0.8,2.9-0.8
	c0.7,1.9,3.6,2.8,5.2,1.7c0.1,0.3,0.4,0.5,0.3,0.9h1.4c0.3,0,0.6-0.2,0.8-0.4c0.4-0.6,0.2-1,0.5-1.4c0.1-0.2,0.3-0.3,0.5-0.3h1.1
	c0.1-0.2,0.2-0.6,0.6-0.5c-0.1,0.6,0.5,1,0.3,1.6c3.2,0.4,6.5-2.2,9.2-2.1c2,2.5,6.8,1.4,11.3,1.7c0.2-1.3,1.4-2.1,3.2-2.2
	c-0.2,0.7,0.2,1.2,0.9,1.3c0.3,0,0.6-0.3,0.6-0.6c0-0.1,0-0.2,0-0.2c0.7,0.1,1.5,0.3,1.7-0.2c0.2-0.4-0.3-0.7-0.3-1.1l0.1-0.3
	c0.1-0.3,0.3-0.6,0.7-0.6c1.3-0.1,1,1.5,1.8,1.5c0.5,0,0,0.8,0.6,0.8c0.1,0,0.2-0.1,0.3-0.1c0.3,0.3,0.6,0.7,1.2,0.8
	c0.9,0.1,0.7-1.1,1-0.8c1.4,1.2,4.5,0.3,6.5,0.1c0.2,0,0.4,0,0.6,0.2c0.3,0.4,1.2,1,1.2,0.5c0-0.3,0.2-0.5,0.5-0.7
	c0,0,0.1,0.5,0.3,0.7c0.7,0.8,1.8,0.7,2.6,0.2c0.1-0.1,0.2-0.1,0.3-0.2c2.3-0.6,5.1,1.1,7.8,1.5c0.2,0,0.3,0,0.5,0
	c5.9-1.4,14.9,1,22.1,0.8c0.3,0,0.6-0.2,0.8-0.5c0.1-0.2,0-0.4-0.2-0.5c-1.5-0.6-4.1-0.9-4.5-0.9c-0.1,0-0.2,0-0.2,0.1
	c-1.2,1-3.5-0.2-3.7-0.3c-1.3,0.2-5.1,0.8-5.4,0c-0.1-0.2,0.5-0.3,0.7-0.4c-0.6-0.6-0.9-0.4-1-1.1c0-0.2-0.1-0.3-0.3-0.4
	c-0.5-0.2-0.9,0.3-1.6-0.1c0.4-1.1-0.7-2.2-0.6-2.8c1.9,0,3.7-1.7,6.4-1.2c1.2-1,2.1-1.9,2.3-3c0.3,1,1.6,1.2,2.9,1.4
	c0.1-0.9,0-1.8,1.2-1.9l0.1,0c0.5,1.6,3.1,1,3.5,0.2c0,0,1.5,0.6,2.6,0.5c0.1,0,0.3-0.1,0.4-0.2c0.3-0.4,0-0.9,0.2-1.3
	c0.2,0.1,0.3,0.3,0.5,0.3c-0.6-1.2-0.2-2,0.6-2.5c0.2-0.2,0.3-0.4,0.3-0.7c-0.1-0.3-0.1-0.6,0.1-0.6c-0.4-0.6-0.9-1.2-0.9-2.2
	c-0.3,0-1.1,0-1.4-0.1c0.1-0.5,0.2-0.7,0.1-1.2c-0.1-0.2-0.2-0.4-0.5-0.5c-0.7-0.2-1.4-0.5-1.8-1c-0.4-0.4-0.2-1,0.3-1.2
	c0.9-0.2,1.9-0.5,2.4-0.2c0.6,0.3-0.4,1.3,0.6,1.6c0.9-0.1-0.8-1.7,0.4-1.3l0-0.3c0-0.5-0.5-1-1.3-0.8c0-0.4-0.1-0.7-0.1-1.2
	c0.1-0.3,1,0,1-0.4c-1.9,0.4-0.8-2.5-1.7-1.7c-0.4-1,1.1,0,0.7-1c-1.5-0.1-4.3-1.3-6.8-1c-0.3,0-0.5,0.4-0.4,0.7
	c0.2,0.7,0.4,0.7,0.3,1.8c-0.6,1.5-2.3-0.8-2.5,0.8c-0.5-0.5-0.4-1.5-0.9-1.9c-0.3,0.2-0.6,0.5-0.6,0.9c0,0.2-0.1,0.7-0.7,0.7
	c-0.7,0-1.5-0.4-1.8-1.3c-0.1-0.5,0.2-0.6,0.5-0.8c0.4-0.2,0.2-0.8-0.2-0.8c-0.4,0-0.9-0.2-1.3-0.4c0.1-0.6-0.8-0.9,0.2-0.8
	c-0.6-1-0.8-0.2-1.4,0.1c0-0.4,0.1-0.9,0.2-1.1c0.5-1.3,3.4-0.1,3.6-1.4c-0.9-0.2-1.8-0.2-1.7-1.2l0.2-0.2c1,0.4,1.7-0.6,2.7,0.2
	c0.1,0.1,0.1-0.6,0.2-0.8c0.1-0.2,0.2-0.3,0.4-0.4l0.2,0c0.3,0,0.5,0.2,0.5,0.4c0,0.2,0,0.5,0.1,0.5c0.1,0.3,0.4,0.4,0.7,0.5
	c1.1,0,1.6-0.6,3-0.3c0.1,0,0.3,0.1,0.4,0.2c0.2,0.2,0.4,0.4,0.5,0.7c0.4-0.5,1.3,0.3,0.4,0.6c0.1,0.2,0.5,0.4,0.7,0.5
	c0.5-1.3,2.8-0.6,3-2.2c-0.1,0-0.3,0.1-0.4,0.3c-0.1,0.2-0.4,0.4-0.7,0.4c-0.6,0-1.3,0-1.8-0.3c-0.2-0.1-0.4-0.4-0.5-0.7
	c0-0.1,0-0.2,0-0.2c0.1,0,0.1,0.1,0.2,0.1c0.3,0.2,0.6,0.1,0.8-0.1c0.3-0.3,0.6-0.7,0.9-1c0.2-0.2,0.2-0.6,0-0.8s-0.7,0.1-0.7,0
	l1-0.7c0,0-0.7-0.1-1.6,0.4c-0.1,0.1-0.2-0.2-0.4-0.2l-0.1,0.3c-0.5,0.7-0.9,0-1.4,0c0.6-0.8,0.4-2.1,1.8-2.2
	c-1.2-1.3-0.3-3.8,1.5-3.8c1.6,0,2,0.3,2.6,0.5c1.4-2,5.7-0.5,8.7-1.3c0.5-0.1,0.7-0.7,0.5-1.1c-0.2-0.4-0.4-0.8,0-1.1
	c3.3,1,9.7,2.2,9.4,0.9c-0.3-1.8,1.3-1.5,3-1.3c0.3-0.9-0.8-1.1-0.6-1.7c0.6-1.9,4,0,5.6-1.5c-0.8-0.5-1.1-2.5,0-2.2
	c2.8,0.7,5.2-0.6,3.8-0.7c-0.5,0-0.9-0.1-1.2-0.2c-1.3-0.4-1.2-2.2,0.1-2.5C421.7,83.6,422.1,83.6,422.5,84 M409.1,86.3
	c0.2-0.8,1.7-0.4,2,0C410.6,87,409.7,86.6,409.1,86.3 M408,87.4c-0.5,0-1.1,0.3-1.6,0.3c-0.1-0.5,0.1-0.7,0.2-1
	c0.1-0.3,0.4-0.4,0.7-0.4h0.6c0.6,0.4,1.5,0.5,1.4,1.4C409.2,87.8,408.1,87.9,408,87.4 M405.3,89.2v-0.4c1.2-0.1,3.2-0.8,3.8,0
	c-0.6,1-1.9,1.1-3.2,1C405.5,89.8,405.3,89.5,405.3,89.2 M400.1,80c0,0.2-0.1,0.4-0.3,0.5c-0.3,0.1-0.8,0.3-0.8-0.1
	c-0.2,0-0.3-0.1-0.3-0.2c-0.5-0.2,0.2-0.7,0.9-0.7C399.8,79.4,400.1,79.7,400.1,80L400.1,80L400.1,80z M393,87.8v-0.6
	c1.3,0.2,3.1-1.3,3.3,0.5c-1.5-0.1-1.7,0.5-2.8,0.5C393.2,88.2,393,88,393,87.8 M388.9,80.6c-0.3-0.8,0.4-0.8,1.2-0.7
	C390.2,80.5,389.7,80.7,388.9,80.6 M386.3,97.6c0,0.5-0.4,0.8-0.9,0.8c-0.6,0-1-0.2-0.9-0.7c-0.7-0.5,0.2-0.8,0-1.6
	c0.5-0.1,0.7,0,1.1,0.2C386.4,96.6,386.4,97,386.3,97.6 M382.8,101.2c0.2-1,1.8-0.8,2.3-1.4c0.2,0.2,0.3,0.5,0.3,0.9
	C384.6,101,383.9,101.2,382.8,101.2 M381.6,97.9c0.2-0.7,0.7,0.3,1.4,0c0.8,0-0.4-0.4,0-0.9c1.5,0.3,1.3,2.7-0.1,2.7
	C381.3,99.7,380.2,98.2,381.6,97.9 M379.9,101c0-0.4,0.1-0.9-0.3-0.9c-0.2,0-0.4,0-0.6,0c-0.8-0.7-2-0.5-2.5,0.2
	c-0.6-0.1-1.1-0.3-1.6-0.4l0-0.3c-0.2,0-0.4,0-0.6,0h-0.2c-0.6-0.3-1.2-0.6-1.8-1h0.7c0.2,0,0.4,0,0.6-0.1c0.7-0.4,1.5-0.2,1.6-0.9
	c0-0.2,0.2-0.2,0.3-0.1c0.8,0.5,2,1,1.3,1.8c1-0.1,1.2-0.2,1.7-0.8c0.8-1,2.8,1.2,2.9,2.7C381.7,101.9,381,101,379.9,101 M379,114.8
	c2.4,0.2,5-1.5,7.1,0.5c0.3,0.3,0.2,0.8-0.2,0.9c-1.1,0.5-3.3-0.4-4.3-1.2c-0.2,2-1.6,1.7-3.5,1.1c-0.4-0.7,0.9-0.8,0.2-1.1
	c-1.1,0-0.8,0.4-0.9,0.9c-0.1,0-0.1,0.1-0.2,0.2c-1.3,0.4-1.3-0.6-1.6-1.2c-0.1-0.2,0-0.6,0.2-0.7
	C376.7,113.6,377.8,114.7,379,114.8 M381.9,119.7c0.3,0,0.2-0.2,0.1-0.4c-0.1-0.3,0.1-0.6,0.4-0.5c0.4,0.1,0.7,0.4,0.9,0.8
	c0.2,0.4-0.2,0.8-0.6,0.7C382.4,120.1,382.1,119.9,381.9,119.7 M377.9,127.7c-0.4-0.3,0.1-1.1,1.1-0.9
	C379.1,127.4,378.6,128.1,377.9,127.7 M376.6,116.9c0.2-0.7,1.7-0.1,1.6,0.6C377.6,117.4,376.4,117.9,376.6,116.9 M374.3,107.3h-0.6
	c0,0,0.2-1.2,0.2-1.5l0.7,0.7C374.5,106.8,374.4,107.1,374.3,107.3 M372.7,133.1c-0.4,0-0.7,0.2-0.7,0.5l-0.3,0
	c-0.6,0.7-1.2-0.1-1.9-0.3c-0.3-0.1-0.7,0.2-0.7,0.5c0,0.2,0.1,0.3,0.1,0.5c0.6,0.1,1.3,0,1.9,0.2c0.3,0.1,0.4,0.4,0.2,0.6
	c0,0-0.1,0.1-0.2,0.2c-0.2,0.2-0.5,0.3-0.8,0.1c-0.7-0.4-1.4-0.4-2.2-0.4c0,0,0,0,0.1-0.2c0-0.2,0-0.5-0.2-0.6
	c-0.6-0.8-1.5-0.1-2.1-0.9c-0.2-0.3-0.2-0.8,0.1-1c0.4-0.4,0.8-0.7,0.2-1.5c0.7,0.1,1.4,0.2,1.8-0.2c0.4-0.5,1.3,0.3,2.2,0.2
	C371.1,132.1,371.7,132,372.7,133.1 M367.5,121.3c-0.6,0.3-1.1,0.7-1.6,0.9l0,0c0-0.1-0.1-0.3-0.2-0.4c-0.1-0.3,0.1-0.7,0.5-0.7
	C366.6,121.1,367.1,121.2,367.5,121.3 M356.6,125.3c0.1,0,0.2-0.1,0.4-0.2c0.2-0.1,0.4,0,0.6,0.2c0.1,0.2,0.7,0.7,0.7,0.9
	C357.4,126.5,356.6,126.1,356.6,125.3 M354.1,34.9c1-0.7,3.8,0.8,5.2-0.4c0.8,0.8-0.4,1.5-0.4,2.2c-1.8-0.7-3.5-0.2-4.8-1.1
	C353.8,35.6,353.8,35.1,354.1,34.9 M351.2,32.7c0.9,0.1,0.7,0.4,0.6,1.1C350.9,33.7,351.1,33.4,351.2,32.7 M369.7,42.9
	c1,2.8-3.9,1.8-4.3,0.4C366.6,43.1,368.6,43,369.7,42.9 M369.1,98.2c0-0.1-0.2-0.8-0.3-0.8c0.8-0.1,1.2,0.2,1.5,0.2l0,0
	C370.1,97.8,369.5,98.1,369.1,98.2 M369.8,107.9c-0.6-0.2-0.9,0.8-1.5,0.4C367.3,107.5,369.9,107.2,369.8,107.9 M367.4,71.9
	c-0.2,0.3-0.4,0.6-0.6,0.9c-0.3-0.1-0.3-0.4-0.7-0.5l0,0C366.1,71.9,366.9,71.7,367.4,71.9 M369.5,76.5c-0.1,0.3-0.3,0.6-0.7,0.8
	c-0.2,0.1-0.4,0-0.5-0.2c-0.1-0.2-0.2-0.3-0.2-0.4c0-0.1,0.2-0.3,0.3-0.5h0.1C368.8,76.3,369.1,76.4,369.5,76.5 M368.1,65l-0.2-0.2
	c0-0.2,0-0.4,0-0.7c0.6,0.1,1,0.3,1.3,0.7C369.1,65.3,368.7,65.2,368.1,65 M366.9,56.5c0.8,0.2,0.5-0.6,1.5-0.2
	c-0.4,0.6-1.3,0.8-2,1.1c-0.2,0.1-0.5,0-0.6-0.3c-0.1-0.7,0.1-1.7,0.7-1.7C367.2,55.3,366,56.3,366.9,56.5 M366.5,107
	c-0.3-1,0.7-0.5,1.4-0.5C368.2,107.4,367,107.4,366.5,107 M372,130.7c-0.4,0-0.7-0.2-0.9-0.5c0.3,0.2,0.6,0.1,0.9,0.2L372,130.7z
	 M370,99.8c1.1,0.1,1.5-0.9,2.1,0.4C371.7,100.7,370,101.6,370,99.8 M372.3,68.6c0,0.4,0.1,0.8,0.2,1.1c-0.2,0.1-0.3,0.2-0.7,0.1
	c-0.2,0-0.4,0.1-0.7,0.1c-0.4-0.4-0.8-0.9-1-1.5C370.9,68.3,371.8,68.3,372.3,68.6 M371,49.9c-0.2-0.6-0.2-2.1-0.8-1.9
	c2.3-0.7,2.9,1.9,1.3,2.2C371.3,50.2,371.1,50.1,371,49.9 M374.4,62.2c0.4,1-1,1-1.3,0.4C373.4,62.4,374.2,61.8,374.4,62.2
	 M375,69.8c0,0.6-1.3,0.7-1.7,0.2c0.3,0,0.7-0.1,0.9-0.3c0.1-0.1,0.3-0.1,0.5,0C374.8,69.7,374.9,69.8,375,69.8 M374.9,67.9
	c0.2-0.1,0.3-0.2,0.4-0.2c0.6,0.3,1.1,1.1,1.3,1.7c-0.2,0-0.5,0.1-0.7,0.1c-0.1-0.2-0.3-0.2-0.3-0.5c-0.2,0-0.3,0-0.5-0.1
	C374.6,68.9,374.5,68.2,374.9,67.9 M379.3,73.2c-0.1,0.1,0.1,0.7,0,0.8l-0.9-0.4C378.5,73.5,379.1,73.3,379.3,73.2 M378.8,65.1
	c0.2,0,0.4,0,0.6-0.1c0.3-0.1,0.7,0,0.8,0.3c0.2,0.6,0.3,1.2,0,1.6c-0.3,0.5-1.1,0.4-1.3-0.2C378.8,66.3,378.7,65.7,378.8,65.1
	 M383.3,74.9c0.1-0.1,0.4-0.1,0.7-0.1c1.1,0,1.5,1.4,1.2,1.9c-0.8,0-1.6-0.4-1.8-0.9c0.1,0,0.3,0,0.4,0
	C383.6,75.5,383.4,75.1,383.3,74.9 M384.9,73.4c-0.9,0.1-1.6-0.1-1.8-0.9c-0.1-0.2,0.1-0.5,0.3-0.5c0.3-0.1,0.6-0.1,1.1-0.1
	c0.3-0.3,0.3-0.9,0.9-1c0.3,0,0.5,0.2,0.5,0.5v0.5h-0.3c0.2,0.5-0.1,0.7-0.2,1C385.4,73.2,385.2,73.4,384.9,73.4 M382.9,68.6
	c0.3-0.1,0.5-0.4,0.6-0.7c0.1-0.2,0.4-0.4,0.7-0.3c0.6,0.1,1.5,0.1,1.9,0.4c0.1,0.5-0.1,0.9-0.6,0.9l-0.4-0.2
	c-0.8,1-2.1-0.2-2.8,0.6c-0.8,0.4-2.6-0.1-2-0.9C380.7,67.6,382.7,68,382.9,68.6 M390.8,119.7c1-0.1,0.9,1.2,0.3,1.3
	C390.9,120.5,389.8,119.7,390.8,119.7 M329.2,131.7c0.2-0.2,0.5-0.3,0.7-0.4c0.4,0.5,1.1,0.9,1.1,1.7c-0.5,0-1.2,0-1.5-0.1
	C328.9,132.7,328.8,132.1,329.2,131.7 M325.2,131.8l-0.4-0.3h0.8c0.2,0,0.4,0.5,0.5,0.7C325.7,132.1,325.4,132,325.2,131.8
	 M325.4,134.2c-0.2,0.1-0.5-0.1-0.6-0.3c0-0.2-0.1-0.4-0.2-0.6c0.5,0.1,1,0.1,1.5,0.2C325.9,133.7,325.7,134.1,325.4,134.2
	 M322.4,133.4h-0.3c-0.9,0.4-4.2,1-6.7,1c-0.3,0-0.5-0.2-0.5-0.5c0-0.2,0.2-0.8,0.3-0.9c0.9,0,5.7,1.2,5.7,0.2l0.5-0.1
	c0,0-0.1-0.7,0.1-1c0.8,0.4,1.6,0.8,2.4,1C323.8,133.1,323.4,133.8,322.4,133.4 M303.4,37.4c-0.1,0-0.1,0-0.2-0.1
	c-0.1-0.2-0.4-0.3-0.4-0.5c0.8-0.2,2.5-0.1,2.4-1.1c0.8,0.1,1.2,0.6,1.3,1.2c0.1,0.2-0.1,0.5-0.3,0.5
	C305.3,37.5,304.1,37.5,303.4,37.4 M262.3,137.6c0-0.2,0-0.4,0.1-0.6c0.1-0.2,0.4-0.3,0.6-0.2c0.2,0.2,0.4,0.4,0.8,0.3
	C263.7,137.7,263.1,137.6,262.3,137.6 M168,31.4l0-0.4c0.4-0.1,0.9,0.1,1,0.2C168.8,31.4,168.3,31.4,168,31.4 M166.4,128.1
	c-0.7,0.2-0.5-0.5-1-0.5c0-0.1,0-0.3,0-0.4c0-0.2,0.2-0.5,0.5-0.4c0.5,0.1,1,0.3,1.4,0.4C167,127.5,166.6,127.9,166.4,128.1
	 M161.5,32.2c-0.2,0-0.3-0.2-0.4-0.4c0-0.1,0-0.3-0.1-0.5c0.2,0,0.4,0,0.7-0.1c0.2,0,0.3,0.1,0.4,0.3c0,0.3,0.1,0.5,0.2,0.7
	C162,32.3,161.7,32.3,161.5,32.2 M150.8,28.1c-0.1,0.1-0.1,0.2-0.2,0.2c-0.4,0.2-0.8,0.2-1-0.1C148.3,26.8,151.9,26.6,150.8,28.1
	 M147.4,31.3c0.2-0.9-0.5-0.9-0.9-1.2c0.1-0.1,0.2-0.3,0.2-0.5c0-0.1,0.1-0.2,0.2-0.3c0.5-0.4,1.3,0.1,1.9,0.2
	c0.8-0.1,1.3-0.5,1.7-0.1c0.3,0.3,0.2,0.9-0.1,1.1C149.7,31,148.7,30.9,147.4,31.3 M147.3,27.2c-0.2,0.7-1.2,0.7-1.6,0.1
	c0-0.1-0.1-0.2-0.1-0.3c-0.6,0.2-1.5,1-1.6,0.2c0-0.1-0.5-0.3-0.5-0.4c-1-0.8,0.7-1.1,1.6-1.4c0.2-0.1,0.3-0.3,0.2-0.5
	c-0.2-0.2-0.5-0.4-0.6-0.6c-0.2-0.2-0.1-0.6,0.1-0.8c0.1-0.1,0.2-0.3,0.5-0.4c1.1-0.3,1.5,1.3,0.7,1.7c-0.1,0.1-0.2,0.2-0.1,0.4
	c0.4,0.3,0.8,0.5,1.4,0.7C147.5,26.2,147.5,26.8,147.3,27.2 M143.2,28.4c0.7-0.1,1.5-0.2,1.8,0c0.2,0.9-1,1.2-1.9,0.9
	C142.7,29.2,142.7,28.5,143.2,28.4 M138.7,29.6c-0.5,0-1.1,0-1.1-0.6c0.5,0,0.7-0.5,1.1-0.6c0.2-0.1,0.3,0,0.5,0.1
	c0.4,0.4,1.3,0.3,1.3,1.1C140,29.5,138.8,30,138.7,29.6 M137.3,25.2c-0.4,0.1-0.5-0.2-0.8-0.1c-0.7-0.1-0.6,0.4-1.3,0.4
	c-0.3,0.3-1.2,0.4-1.5,0.2c-0.2-0.6,0.5-0.5,0.4-1c0.3-0.7,1.2-0.5,1.5,0.1c0.2-0.3,1.7-1.2,1.8-0.2
	C137.6,24.9,137.3,24.9,137.3,25.2 M130.8,30.4c-0.2-0.8,0.2-1.7,0.6-2.3c2.2-0.2,2.4,2.5,0.4,2.9C131.3,31.1,130.9,30.8,130.8,30.4
	 M124.8,31.7c-0.2,0-0.4-0.1-0.4-0.4c0-0.3,0.1-0.5,0.2-0.8c0.8-0.3,0.6,0.5,1.1,0.6C125.7,31.6,125.3,31.7,124.8,31.7 M121.6,28.5
	c1.9,0.2,3.5-1.9,3.9,0.2C124.4,29,121.7,29.9,121.6,28.5 M119.5,28.3c0.6,0,0.6,0.5,0.6,1.1C119.2,29.6,119.1,28.6,119.5,28.3
	 M117.1,30.3c0.2-0.2,0.3-0.5,0.1-0.9c0.5,0.1,0.8,0.5,1.2,0.6c0.2,0.1,0.3,0.4,0.1,0.5c-0.2,0.2-0.6,0.5-1,0.5
	C117.2,31.2,116.9,30.7,117.1,30.3 M110.7,28.3c-0.8,0.3-0.5-0.6-0.6-1.1C110.9,26.9,111.3,28.1,110.7,28.3 M110.4,33.5
	c-0.8,0.2-1-0.4-1.1-1c0.5-0.1,0.1-0.9,1-0.8C110.1,32.5,111.1,33,110.4,33.5 M109.7,136.1c-0.5,0.2-0.6,0.3-1.1,0.5
	c-0.3-0.3-0.4-0.8-0.3-1.3s0.6-0.8,1-0.6C109.7,134.9,109.8,135.4,109.7,136.1 M107.7,136.4c-0.5,0-0.8-0.1-1.1,0.1
	c-0.4,0.2-0.9,0-0.9-0.4c0-0.3,0-0.7,0.2-0.9C107.1,134.8,107.8,135.2,107.7,136.4 M93.3,35.6c0-0.7,1.5-0.8,1.3,0.1
	C94.1,36.2,93.7,35.7,93.3,35.6 M91.7,39.8c0.6-0.2,1-0.1,1.3,0C93.1,40.6,91.6,40.8,91.7,39.8 M86,35.5c-0.4,0-0.5-0.2-0.6-0.6
	c0-0.3,0.1-0.6,0.4-0.7c0.5-0.2,1-0.4,1.6-0.5c0.9,0.4-1.1,1-0.1,1.4C87.3,35.8,86.1,34.6,86,35.5 M82.3,40.1
	c0.1-0.2,0.2-0.4,0.2-0.7c0.4-0.1,0.5,0.2,0.8,0.1c-0.1-0.7-1.3-0.2-2.1-0.2c0.5-1.5,1.7,0.3,2.8-0.5C85.1,39.6,82.9,39.9,82.3,40.1
	 M80.2,138.2c0-0.4-0.1-0.8,0-1.2c0-0.3,0.3-0.5,0.5-0.5c0.4-0.1,0.8-0.1,1.1,0c0.6,0.2,0.7,0.8,0.2,1.2
	C81.6,137.9,80.9,138,80.2,138.2 M79.2,33.9c0.7,0,1,0.9,1.6,0.1c0.9,0.6-0.4,1.4-0.3,2.1c-1.1,0.1-2.1-0.6-1.9-1.6
	C78.6,34.1,78.8,33.9,79.2,33.9 M74.3,40.5c0.7-0.8,1.8-1.4,2.7-2.1c-0.1,0.8,0.6,0.8,1.6,1c-1.4,0.6-2.6,0.9-4,1.5
	C74.4,41,74.2,40.7,74.3,40.5 M74.8,140.1c0.2-0.5,0.6-0.8,1.4-0.9c0.3,1.1-0.4,1.8-1,1.6C74.9,140.8,74.7,140.5,74.8,140.1
	 M77.2,34.2c0.5,0.6,1,1.2,1,2.4c-0.5,0-1,0.3-1.4,0.4c-0.5,0.1-0.8-0.5-0.5-0.9C76.7,35.5,77.7,35.4,77.2,34.2 M79.3,38.2
	c0.4,0.1,1.1,0.8,0.8,1.4C79.6,40.5,79.2,38.8,79.3,38.2 M65.9,98c1-0.2,2.8-1.1,3.9-1.9c0.2-0.1,0.3-0.2,0.5-0.2
	c0.2,0,0.6,0.2,0.4,0.9C70.1,98.7,67.1,99.4,65.9,98 M61.7,100.5c-0.8-0.1-1.5-0.5-1.5-1.7c0.8-0.4,1.8-1,2.7-1.4
	c-0.1,0.6-0.2,1.8-0.5,2.8C62.3,100.4,62,100.6,61.7,100.5 M60.3,103.1c0-0.2,0-0.3,0-0.5c0-0.2,0.1-0.4,0.3-0.4
	c0.2,0,0.5-0.1,0.7-0.2C61.4,102.7,61,103,60.3,103.1 M60.6,106.7c-2.5,0.1-2.5,2-4.5,2.4c0.1-1.8-1.2-1.7-2.7-1.2
	c-0.4,0.3,0.1,0.5,0.4,0.8c0.3,0.3,0.2,0.7,0,0.9c-0.4,0.3-0.9,0.6-1.4,0.8c-0.5,0.2-0.9-0.6-0.4-0.9c0.4-0.2,0.9-0.4,0.9-1
	c-1-0.1-0.9-1-0.8-1.9c0-0.2,0.2-0.4,0.4-0.5c0.6-0.2,0.8,0,0.8,0.7c0.5-0.4,1.4-1,2.2-1.1c0.4,0,0.6,0.5,0.4,0.8
	c-0.1,0.1-0.1,0.2,0,0.5c1-0.3,0.4-1.4,1.5-1.5c0,0.2,0.1,0.4,0.3,0.5c0.3,0.3,0.8,0.2,0.8-0.2c0.1-0.3,0.1-0.7,0.1-1.2
	c0.8,0.2,1.4,0.8,2.4,0.7C61,106.1,60.3,106.1,60.6,106.7 M52.5,146.3c-0.2-0.8,0.8-1.2,1.2-0.8C53.6,146,52.9,146.6,52.5,146.3
	 M51.1,142.3c-0.4,0.2-0.7-0.2-0.5-0.6c0.3-0.4,0.6-0.8,0.9-1.3c0.3-0.4,0.8-0.5,1.2-0.1c0.4,0.3,0.5,1,0.5,1.6
	C52.7,141.2,51.8,142,51.1,142.3 M56.5,102.7c0.2-0.3,0.6-0.5,0.9-0.2c0.7,0.5,0.9,2.2,0.1,2.6c0-1.1,0-2.2-1.2-1.8
	C56.3,103,56.4,102.8,56.5,102.7 M61.1,88.3c-0.1,0.6-0.4,1.2-0.5,1.8c0.8,0.2,1.2,1,1.5,2c-0.9,0.3-1.4,0-1.7-0.5
	c-0.1-0.2-0.4-0.1-0.4,0.1c0,0.3,0.1,0.7-0.5,0.6c-0.6-0.4,0.2-1.4-0.2-2.4c-0.1-0.6-1.1,0.2-1.6,0.1c0.4-1.2,1.8-2.6,3.1-2.3
	C61.1,87.8,61.2,88.1,61.1,88.3 M62.5,96.7c-0.1,0.4-1.3,0.2-1.9,0.3C60.6,96.6,62.7,95.7,62.5,96.7 M41.4,144.1c0-0.1,0-0.1,0-0.2
	c-0.1-0.4,0.2-0.9,0.5-1.1c1.8-1.1,3.9-0.8,5.4-0.2c-0.5,1.4-3.3,2.2-5.1,2.2C41.8,144.8,41.5,144.5,41.4,144.1 M42.4,151.6
	c0,0.1,0,0.3,0.1,0.4c0,0.3-0.1,0.5-0.4,0.5c-0.4,0-0.9-0.1-1.4,0.2c-0.3,0.2-0.8,0.3-1.1,0c-0.2-0.2-0.1-0.5,0.1-0.7
	c0.3-0.2,0.9-0.3,1.4-0.4c0.4-0.1,0.6-0.5,0.4-0.9v0c-0.1-0.2-0.3-0.3-0.5-0.2c-0.9,0.2-1.6,1.2-2,0.6l-0.2,0.1
	c-0.1-0.5-0.8-0.3-0.8-0.3c1.8-1.5,1.8-2.9,1.8-2.9c2.2,0.2,2.9-1.3,4.4-1c-0.5,1-0.3,1.3,0.2,1.6c0.3,0.2,0.4,0.6,0.3,0.9
	C44.1,150.8,42.9,150.2,42.4,151.6 M40.1,139.8c0.2-1,1.5-1.7,2.5-1.5c0.3,0,0.5,0.4,0.5,0.7C42.8,140.3,40.8,140.4,40.1,139.8
	 M41.1,123.3c0.4,0,1,1.8-0.1,1.8C40.2,125,41.2,124,41.1,123.3 M41.6,116.7c0.1,0,0.3,0,0.5,0c0.1,0.7-0.6,1.4-1.4,1.6
	c0.4-0.1,0.4-0.6,0.3-1.1C41,116.8,41.3,116.6,41.6,116.7 M43.1,123.3c0.1,0.2,0.1,0.5-0.1,0.6c-0.2,0.1-0.5,0.2-0.7,0.3
	c0-0.3,0-0.9,0-1.2C42.9,122.6,43,123,43.1,123.3 M43.6,139.2c-0.2-0.4,0-0.8,0.5-0.8c1.4,0.1,2.7-0.9,3.2,0.5
	c-1.5-0.2-1.7,0.1-3.3,0.9C43.9,139.6,43.7,139.4,43.6,139.2 M37,140c0.3-0.5,1-0.8,1.5-1.3c-0.1,0.8,0.3,0.9,0.4,1.5
	c-0.5,0.3-0.9,0.5-1.3,0.6C37.1,140.8,36.8,140.4,37,140 M38.8,126c-0.2,0.8-1.3-0.3-1.9-0.1C36.7,125.3,39.1,124.8,38.8,126
	 M33.5,118.6c0.4-0.5,1-0.2,1.9-0.4c0.3,1.3-0.9,1.4-1.6,1.2C33.4,119.4,33.3,118.9,33.5,118.6 M33.4,142.8
	c-0.9,0.3-0.9-0.6-1.6-0.6c0.3-1.1,1.8-0.8,2.2-0.9C34.2,142,33.8,142.4,33.4,142.8 M30.1,137.2c-0.2-0.7,1.2-1.5,1.5-1
	C31.9,137.1,30.6,136.8,30.1,137.2 M29.9,135.6c-1.7,1-3.1,1.7-3.7-0.2c-0.9,0.9-2.8,2.2-4,2.2c-0.5,0-0.7-0.6-0.5-0.9
	c1.8-2.3,4.6-1.3,7-2c1.4-0.4,2.4-2.1,3.5-1c-0.2,0.3-0.2,0.6-0.2,1c0,0.3-0.2,0.5-0.5,0.5c-0.3,0.1-0.6,0.2-0.9,0.3
	c-0.3-0.5,0-1-1.1-0.7C28.9,135.1,30.2,134.9,29.9,135.6 M24.9,140.4c0-0.8,1-1.1,1.8-1.2c0.6,0.2-0.6,1,0,1
	C26.4,140.6,24.9,140.9,24.9,140.4 M17.7,143.3c-0.6,0-0.9-1.4,0.1-1.4C18.7,142,17.9,142.8,17.7,143.3 M50.3,90
	c0.3-0.2,0.5-0.3,0.8-0.5C51.1,89.9,50.7,90,50.3,90 M43.6,78.2c0-0.6,1.2-0.4,1.8-0.5c0,0.3,0,0.5,0,0.8
	C44.9,78.7,43.7,78.8,43.6,78.2 M43.6,50.5c-0.2-0.4-0.5-0.9,0.4-1.2C44.2,49.9,44.5,50.2,43.6,50.5 M36.6,55.1
	c-0.2-0.7-0.9-1.2-0.3-2.1c1.4,0.7,3.3-0.8,4.5-0.9c0.7-0.1,1,0.7,0.4,1.1C40.1,54,38.2,54.1,36.6,55.1 M37.6,85.8
	c1-1.1,1-1.4,2.5-2c0,0.3,0.1,0.6,0.3,0.7c0.2,0.2,0.2,0.5,0,0.8C39.7,86,38,86.2,37.6,85.8 M38.8,93.3c-0.4,0.1-0.7,0.2-1.1,0.3
	c0,0,0,0,0,0c-0.2-0.9,0.9-1,0.9-1.8c0.5,0.1,0.7,0.4,0.7,0.8C39.4,93,39.1,93.2,38.8,93.3 M36.3,86.6c-0.8,0.3-1.2-0.1-1.8-0.1
	c0.5-0.3,0.8-1,1.4-1.3c0.3-0.2,0.8,0.2,0.6,0.5C36.4,86,36.2,86.3,36.3,86.6 M32.8,76.6c-0.9-0.3-2-0.2-2.7-0.8
	c0.9-0.5,0.8,0.4,1.6,0.1c0.9-0.4-0.5-1.3,0.1-1.4C32.7,74.4,33,76.1,32.8,76.6 M31.3,92.3c-0.1-0.2,0.1-0.3,0.2-0.3
	c0.6-0.6-1.1-2.4,0.5-2.8c0,0,0.3,1.8,0.6,2.4c0.2,0.3-0.1,0.8-0.5,0.7C31.8,92.3,31.5,92.2,31.3,92.3 M26.4,94.1
	c-0.1,0-0.2,0-0.5,0.1c-0.1-0.7-0.5-2.5-1.7-1.3c-0.8-1.3-0.8-3.3,1.1-4.4c0.4-0.2,0.8,0,0.9,0.4c0,0.3,0.1,0.6,0,0.9
	c0,0.3,0.2,0.6,0.6,0.6c0.4-0.1,0.8-0.2,1.1-0.1c0.2-0.2,0.2-0.8,0.1-1.5c0-0.3,0.2-0.7,0.5-0.8c0.5-0.2,0.8-0.4,1.2-0.5
	c0.4-0.1,0.7,0.3,0.5,0.7c-0.6,2.2-2.8,3.4-3.2,5.7C27,93.9,26.7,94.1,26.4,94.1 M22.3,95.2c-0.3-0.2-0.8-0.8-0.8-1.3
	c0-0.3,0.3-0.5,0.6-0.4c0.6,0.3,1,0.7,2.2-0.2C24.6,95.1,22.8,94,22.3,95.2 M26.2,83c-0.2,0.7-1.8,1.1-1.9,0.1
	C24.9,82.8,25.9,82.8,26.2,83 M27.3,63.1c1.1-0.3,2.7-0.4,3.7-0.5c-0.1,1.1-2.5,2.2-3.8,1.8C26.6,64.1,26.7,63.2,27.3,63.1
	 M25.6,70.6c-1.5-0.2-1.1-2.5,0.9-2.2c-0.3,0.4-0.1,1-0.1,1.6C26.3,70.4,26,70.7,25.6,70.6 M25.3,104.8c0.6,0.2-0.4,1,0.6,0.6
	c-0.3,0.8-1.2,0.2-1.6,0.3C24.3,105.3,24.7,104.9,25.3,104.8 M19.1,105.4c-0.3-0.5-0.3-0.8-0.2-1.4c0-0.3,0.3-0.4,0.6-0.4
	C20.3,103.8,20.5,104.9,19.1,105.4 M22,75.3c0-0.2-0.4-0.3-0.3-0.2c-0.7-1.2,0.9-1,0.9-1C23.7,74,22.2,75.2,22,75.3 M21.4,66
	c0.2-0.4,0.2-1,0.4-1.4c0.4-0.1,0.6,0.2,0.6,0.7c0,0.2-0.1,0.5-0.4,0.5C21.9,65.8,21.6,65.9,21.4,66 M179.6,27.8
	c0,0.4,0.5,0.4,0.5,0.9c-0.5,0.2-1,0.7-1.9,0.6l-0.3,0c0,0.4-0.6,0.3-0.9,0.3c-0.2,0-0.4-0.2-0.4-0.5
	C176.6,28,178.4,27.4,179.6,27.8 M374.3,43.2c0.3,0.4,0.3,1,0.6,1.4c-0.3,0-0.7-0.1-1-0.1C373.8,43.8,373.7,43.2,374.3,43.2
	 M375.4,52.9c0.9,0,0.7,0.7,0.7,0.9c-0.2,0-0.3,0-0.2,0.2c-0.2,0-1.8,0-1.4-0.9C374.3,53.3,375.5,53.4,375.4,52.9"/>
</svg>
