<?xml version="1.0" encoding="utf-8"?>
<!-- Generator: Adobe Illustrator 24.3.0, SVG Export Plug-In . SVG Version: 6.00 Build 0)  -->
<svg version="1.1" id="Layer_1" xmlns="http://www.w3.org/2000/svg" xmlns:xlink="http://www.w3.org/1999/xlink" x="0px" y="0px"
	 viewBox="0 0 943.8 179.7" style="enable-background:new 0 0 943.8 179.7;" xml:space="preserve">
<style type="text/css">
	.st0{fill:#006141;}
</style>
<g>
	<path class="st0" d="M840.3,87.6h-31.8V4.5h31.8c23,0,30.3,18.2,30.3,41.3C870.7,68.3,863.5,87.6,840.3,87.6 M938.9,175.2
		c-11,0-20.3-1.9-32.1-24.5c-10.7-20.6-13.9-26.6-20.5-39.8c-6.9-13.7-19.1-19.2-29.9-21.5c26.6-0.6,46-16,46-43.6
		C902.4,20,882.1,0,854.7,0h-96.8v4.5H779v170.7h-21.1v4.5h71.7v-4.5h-21.1V92.1h14.1c20.3,0,24.6,9.8,30.5,21.6
		c9.6,19.3,12.7,25.4,20.9,41.8c8.7,17.4,17.5,25.2,39.3,25.2c14.2,0,30.6-1,30.6-1v-4.5H938.9z"/>
	<path class="st0" d="M688.3,175.2h-38.5V92.1h13.8c20.9,0,37.8,16.9,37.8,37.8h3.3V49.8h-3.3c0,20.9-16.9,37.8-37.8,37.8h-13.8V4.5
		h42.7c22.3,0,40.3,18.1,40.3,40.3h3.5V0H599.1v4.5h21.1v170.7h-21.1v4.5h144.4v-56.2H740C740,152,716.8,175.2,688.3,175.2"/>
	<polygon class="st0" points="486.9,131.4 441.6,0 387.5,0 387.5,4.5 409.9,4.5 409.9,175.2 387.5,175.2 387.5,179.7 437.7,179.7 
		437.7,175.2 414.4,175.2 414.4,12.1 474,183 533.7,10.4 533.7,175.2 512.6,175.2 512.6,179.7 584.4,179.7 584.4,175.2 563.3,175.2 
		563.3,4.5 584.4,4.5 584.4,0 532.4,0 	"/>
	<path class="st0" d="M89.1,175.2H50.6V4.5h21.1V0H0v4.5h21.1v170.7H0v4.5h144.4v-56.2h-3.5C140.9,152,117.7,175.2,89.1,175.2"/>
	<path class="st0" d="M203.6,106.3l27.7-73.5l27.9,73.5H203.6z M248.6-4.5h-8.2l-67.8,179.7h-17.8v4.5h44.7v-4.5h-22l24.3-64.4h59
		l24.5,64.4h-20.8v4.5h68.2v-4.5h-15.9L248.6-4.5z"/>
</g>
</svg>
